<svg xmlns="http://www.w3.org/2000/svg" viewBox="0 0 180 180" fill="none">
  <defs>
    <radialGradient id="earthGrad" cx="50%" cy="30%" r="70%">
      <stop offset="0%" style="stop-color:#34d399;stop-opacity:1" />
      <stop offset="100%" style="stop-color:#059669;stop-opacity:1" />
    </radialGradient>
    <filter id="glow">
      <feGaussianBlur stdDeviation="2" result="coloredBlur"/>
      <feMerge> 
        <feMergeNode in="coloredBlur"/>
        <feMergeNode in="SourceGraphic"/>
      </feMerge>
    </filter>
  </defs>
  
  <!-- Main globe circle -->
  <circle cx="90" cy="90" r="85" fill="url(#earthGrad)" stroke="#065f46" stroke-width="3" filter="url(#glow)"/>
  
  <!-- Africa continent (more detailed) -->
  <g fill="#ffffff" opacity="0.9">
    <path d="M60 40c10 0 15 5 20 10s10 5 15 10c0 5-5 10-10 15s-5 10 0 15c5 0 10 5 10 10s-5 10-10 10c-5 5-10 0-15 5s-10 5-15 0c-5-5-10-5-10-10s0-10-5-15c-5-5-5-10 0-15s5-10 10-15c5-5 5-10 10-15z"/>
    
    <!-- Additional landmasses -->
    <circle cx="50" cy="60" r="4"/>
    <ellipse cx="110" cy="70" rx="6" ry="3"/>
    <circle cx="100" cy="100" r="3"/>
    <ellipse cx="45" cy="85" rx="3" ry="2"/>
  </g>
  
  <!-- Footprint/step icons -->
  <g fill="#ffffff" opacity="0.8">
    <ellipse cx="80" cy="130" rx="8" ry="4" transform="rotate(-15 80 130)"/>
    <ellipse cx="100" cy="140" rx="8" ry="4" transform="rotate(-15 100 140)"/>
    <circle cx="90" cy="125" r="3"/>
  </g>
  
  <!-- Climate action symbol (subtle leaf/nature element) -->
  <g fill="#ffffff" opacity="0.6">
    <path d="M70 110c-2-4 0-8 4-8s8 2 8 6-2 6-6 6c-3 0-5-2-6-4z"/>
    <path d="M74 108c0 2 2 4 4 2s2-4 0-4-4 0-4 2z"/>
  </g>
  
  <!-- Orbital rings for dynamic effect -->
  <circle cx="90" cy="90" r="75" fill="none" stroke="#ffffff" stroke-width="1" opacity="0.3" stroke-dasharray="5,5"/>
  <circle cx="90" cy="90" r="65" fill="none" stroke="#ffffff" stroke-width="0.5" opacity="0.2"/>
</svg>
