<svg xmlns="http://www.w3.org/2000/svg" viewBox="0 0 32 32" fill="none">
  <!-- Background circle -->
  <circle cx="16" cy="16" r="15" fill="#22c55e" stroke="#059669" stroke-width="2"/>
  
  <!-- Globe continents (simplified Africa focus) -->
  <g fill="#ffffff" opacity="0.9">
    <!-- Africa continent -->
    <path d="M12 8c2 0 3 1 4 2s2 1 3 2c0 1-1 2-2 3s-1 2 0 3c1 0 2 1 2 2s-1 2-2 2c-1 1-2 0-3 1s-2 1-3 0c-1-1-2-1-2-2s0-2-1-3c-1-1-1-2 0-3s1-2 2-3c1-1 1-2 2-3z"/>
    
    <!-- Small islands/landmasses -->
    <circle cx="10" cy="12" r="1"/>
    <circle cx="22" cy="14" r="0.8"/>
    <circle cx="20" cy="20" r="0.6"/>
  </g>
  
  <!-- Step/footprint icon overlay -->
  <g fill="#ffffff" opacity="0.8">
    <path d="M14 24c0-1 1-1 2-1s2 0 2 1-1 1-2 1-2 0-2-1z"/>
    <ellipse cx="16" cy="26" rx="1.5" ry="0.8"/>
  </g>
  
  <!-- Subtle glow effect -->
  <circle cx="16" cy="16" r="13" fill="none" stroke="#ffffff" stroke-width="0.5" opacity="0.3"/>
</svg>
